<svg xmlns="http://www.w3.org/2000/svg" xmlns:xlink="http://www.w3.org/1999/xlink" width="122" height="122" viewBox="0 0 122 122"><defs><style>.a{opacity:0;fill:url(#a);}.b{stroke:rgba(0,0,0,0);stroke-miterlimit:10;fill:url(#b);}</style><linearGradient id="a" x1="0.5" x2="0.5" y2="1" gradientUnits="objectBoundingBox"><stop offset="0" stop-color="#fac206"/><stop offset="1" stop-color="#fc8433"/></linearGradient><linearGradient id="b" x1="0.5" x2="0.5" y2="1" gradientUnits="objectBoundingBox"><stop offset="0" stop-color="#149ffa"/><stop offset="1" stop-color="#2a7ee2"/></linearGradient></defs><g transform="translate(-20 -37)"><rect class="a" width="122" height="122" rx="38" transform="translate(20 37)"/><path class="b" d="M212.7,170.242a9.231,9.231,0,1,0,9.231-9.231A9.231,9.231,0,0,0,212.7,170.242ZM237.537,112H225.232v18.461h18.459V118.154A6.172,6.172,0,0,0,237.539,112Zm-15.383,24.615a3.086,3.086,0,0,1-3.076-3.076V112H182.153A6.172,6.172,0,0,0,176,118.153v67.695A6.172,6.172,0,0,0,182.153,192h55.386a6.133,6.133,0,0,0,1.586-.211l-8.7-8.711a15.393,15.393,0,1,1,4.355-4.356l8.711,8.711a6.188,6.188,0,0,0,.212-1.586V136.615Zm-21.56,23.712a3.067,3.067,0,0,1-2.173.9h-9.23a3.077,3.077,0,0,1,0-6.154h9.229a3.074,3.074,0,0,1,2.174,5.251Zm27.692-12.308a3.067,3.067,0,0,1-2.173.905H189.193a3.077,3.077,0,0,1,0-6.154h36.922a3.073,3.073,0,0,1,2.173,5.249Z" transform="translate(-129 -54)"/></g></svg>