<svg xmlns="http://www.w3.org/2000/svg" xmlns:xlink="http://www.w3.org/1999/xlink" width="122" height="122" viewBox="0 0 122 122"><defs><style>.a{opacity:0;fill:url(#a);}.b{stroke:rgba(0,0,0,0);stroke-miterlimit:10;fill:url(#b);}</style><linearGradient id="a" x1="0.5" x2="0.5" y2="1" gradientUnits="objectBoundingBox"><stop offset="0" stop-color="#149ffa"/><stop offset="1" stop-color="#2a7ee2"/></linearGradient><linearGradient id="b" x1="0.5" x2="0.5" y2="1" gradientUnits="objectBoundingBox"><stop offset="0" stop-color="#fac206"/><stop offset="1" stop-color="#fc8433"/></linearGradient></defs><g transform="translate(-359.656 -382.266)"><rect class="a" width="122" height="122" rx="38" transform="translate(359.656 382.266)"/><path class="b" d="M163.841,0h60.184a5.908,5.908,0,0,1,5.908,5.908V66.092A5.908,5.908,0,0,1,224.026,72H163.841a5.908,5.908,0,0,1-5.908-5.908V5.908A5.909,5.909,0,0,1,163.841,0Zm54.715,13.549H188.638a3.1,3.1,0,0,0,0,6.19h29.918a2.862,2.862,0,0,0,2.837-2.836,3.355,3.355,0,0,0-2.837-3.354Zm0,10.833H188.638a3.1,3.1,0,0,0,0,6.19h29.918c1.547,0,2.837-1.547,3.1-3.1A3.136,3.136,0,0,0,218.556,24.382ZM162.589,51.463l9.542,10.575s.774,1.8,3.1,0l.774-.258a14.071,14.071,0,0,1,8.511-2.836h21.407s1.547.516,2.321-.516,13.928-10.317,17.539-13.412c.774-1.031,0-2.837,0-2.837s-2.837-4.9-9.542,0c-4.384,3.611-10.833,8.253-10.833,8.253h-12.9l-4.642-3.1s-1.29-1.031,0-1.031c3.611-.516,7.737-1.29,10.059-1.806a4.472,4.472,0,0,0,3.611-4.642c0-3.1-3.611-3.611-3.611-3.611H177.549a2.909,2.909,0,0,0-1.806,1.031c-.774.774-12.638,10.833-13.669,11.864-.775,1.031,0,2.322.515,2.322Z" transform="translate(226.723 407.266)"/></g></svg>